PathFileType	4	(X/Y/Z)	TRAIL_071_EP_01_markers.trc
DataRate	CameraRate	NumFrames	NumMarkers	Units	OrigDataRate	OrigDataStartFrame	OrigNumFrames
200	200	4	44	mm	200	34	270
Frame#	Time	RSH			LSH			C7			LELB			LWR			RELB			RWR			RASI			LASI			SACR			P1			P2			LTHLP			LTHLD			LTHAP			LTHAD			LLEPI			LPAT			LTIAP			LTIAD			LTILAT			LLMAL			LHEEL			LMFS			LMFL			LP5MT			LP1MT			LTOE			RTHLP			RTHLD			RTHAP			RTHAD			RLEPI			RPAT			RTIAP			RTIAD			RTILAT			RLMAL			RHEEL			RMFS			RMFL			RP5MT			RP1MT			RTOE			
		X1	Y1	Z1	X2	Y2	Z2	X3	Y3	Z3	X4	Y4	Z4	X5	Y5	Z5	X6	Y6	Z6	X7	Y7	Z7	X8	Y8	Z8	X9	Y9	Z9	X10	Y10	Z10	X11	Y11	Z11	X12	Y12	Z12	X13	Y13	Z13	X14	Y14	Z14	X15	Y15	Z15	X16	Y16	Z16	X17	Y17	Z17	X18	Y18	Z18	X19	Y19	Z19	X20	Y20	Z20	X21	Y21	Z21	X22	Y22	Z22	X23	Y23	Z23	X24	Y24	Z24	X25	Y25	Z25	X26	Y26	Z26	X27	Y27	Z27	X28	Y28	Z28	X29	Y29	Z29	X30	Y30	Z30	X31	Y31	Z31	X32	Y32	Z32	X33	Y33	Z33	X34	Y34	Z34	X35	Y35	Z35	X36	Y36	Z36	X37	Y37	Z37	X38	Y38	Z38	X39	Y39	Z39	X40	Y40	Z40	X41	Y41	Z41	X42	Y42	Z42	X43	Y43	Z43	X44	Y44	Z44
34	        0.1650000066	      764.8726701736	     1443.6784982681	      141.3697004318	      686.2248182297	     1445.1858997345	     -185.2499842644	      640.8835649490	     1466.8649435043	       -3.5739541054	      520.9530591965	     1171.6148853302	     -281.5285623074	      754.9624443054	     1050.4482984543	     -268.1584358215	      697.8300809860	     1143.7425613403	      293.0932641029	      859.8612546921	     1013.1926536560	      100.0833511353	      734.7686290741	      923.3648777008	      118.6105012894	      739.6311759949	      967.7172899246	     -139.7767066956	      558.5695505142	      991.0716414452	        2.0926594734	      557.4806928635	      996.9102144241	      -42.8865551949	      565.3196573257	      986.3781929016	       43.8217520714	      742.7605390549	      695.4570412636	     -181.8529069424	      789.4543409348	      595.0639247894	     -155.3944349289	      839.8414850235	      719.6023464203	     -112.8020286560	      863.2096052170	      620.9989190102	      -96.8570113182	      825.1816034317	      509.4401836395	     -131.3261985779	      886.8231773376	      513.3780837059	      -83.4788680077	      835.2624177933	      344.3249166012	      -65.0793910027	      807.2444200516	      240.3414100409	      -62.6371502876	      772.6765871048	      299.7280061245	     -128.2049417496	      725.4385948181	      110.4725003242	      -82.0329785347	      655.6385755539	       71.6574490070	      -32.1429967880	      830.3444385529	       86.8796631694	      -32.8097939491	      806.8406581879	       44.2753061652	     -123.8113641739	      870.9384202957	       37.2395664454	     -125.5108118057	      871.1951971054	       43.8626632094	      -17.5250768661	      911.7342233658	       49.0197092295	      -48.2362508774	      633.9193582535	      651.7341732979	      150.2445340157	      622.5192546844	      556.8181276321	      136.2857818604	      735.0234985352	      637.3611688614	       80.3259015083	      720.0050354004	      541.5018796921	       74.1927027702	      599.5548963547	      453.7217617035	      115.6297326088	      650.5650281906	      387.6066207886	       76.7975449562	      476.4181375504	      374.9012053013	       74.1947889328	      365.9375905991	      375.5111992359	       60.4096651077	      421.7762947083	      444.1189467907	      114.2375469208	      216.4189815521	      429.4078350067	       67.1566724777	      194.1677331924	      477.3100018501	        5.4844021797	      180.9459924698	      299.7013330460	       26.2546539307	      121.0958957672	      337.1427059174	       92.3231840134	      109.2178821564	      284.7110629082	      100.3015041351	      130.5058002472	      257.6889097691	        1.0323524475	      130.7942867279	      214.5500183105	       41.3009524345
35	        0.1700000018	      781.6658020020	     1439.7176504135	      142.4382925034	      704.2453289032	     1440.7114982605	     -186.9888901711	      658.6724519730	     1464.7785425186	       -4.8539638519	      544.3668365479	     1162.4675989151	     -283.0228507519	      779.6353101730	     1045.7565784454	     -266.6478455067	      710.7993364334	     1139.8788690567	      293.7904596329	      873.2708692551	     1003.2339096069	      105.6061387062	      750.6800889969	      919.0182089806	      117.4120903015	      754.1536092758	      965.9456014633	     -142.4948573112	      574.1705894470	      987.9906177521	        3.8508176804	      572.7299451828	      994.0251111984	      -41.1036014557	      581.4220905304	      982.9332828522	       45.4493761063	      759.6220970154	      694.4931149483	     -183.7358772755	      806.1292171478	      592.9008126259	     -157.0824384689	      856.1642169952	      718.0632948875	     -113.8453483582	      877.8992891312	      622.2775578499	      -94.9399471283	      842.9726362228	      509.0320706367	     -129.9557685852	      901.7779827118	      511.6411447525	      -80.2100300789	      845.9014892578	      342.1956002712	      -65.7055377960	      814.0239715576	      238.9836013317	      -63.2123947144	      782.3175191879	      299.1816401482	     -128.8276314735	      726.5013456345	      111.2207174301	      -82.0490121841	      655.8643579483	       72.1765309572	      -32.4533581734	      830.8293819427	       86.3468274474	      -32.7541828156	      807.9284429550	       44.2601516843	     -124.0191459656	      871.0057735443	       37.1162295341	     -125.8829832077	      871.5279102325	       43.2302504778	      -17.7087187767	      912.0694398880	       48.0672866106	      -48.4362840652	      655.1432609558	      648.1015086174	      150.7372260094	      646.0456848145	      551.9008040428	      136.7735266685	      756.2948465347	      635.3818178177	       80.3138017654	      744.1998720169	      539.9774312973	       74.6208429337	      626.5684366226	      449.6787488461	      116.8287992477	      678.1730651855	      384.5371603966	       77.2782564163	      503.6982297897	      372.3398745060	       75.4985809326	      393.6434984207	      373.5256195068	       61.5738630295	      449.9371051788	      441.0371184349	      116.0594820976	      244.2260980606	      428.7442266941	       69.1488385201	      220.9013700485	      477.0226478577	        7.9269409180	      209.3884944916	      299.3547618389	       27.5503396988	      149.8260498047	      335.7168138027	       94.6920514107	      138.3533477783	      283.1909060478	      102.5100946426	      158.8482856750	      256.9508254528	        2.9992461205	      160.7782840729	      214.3030762672	       42.3756241798
36	        0.1749999970	      798.6228466034	     1435.9053373337	      143.4992551804	      722.2371101379	     1436.4900588989	     -188.6212527752	      676.6709089279	     1463.1736278534	       -5.8727860451	      568.1916475296	     1153.5192728043	     -284.4807207584	      804.5102357864	     1041.4731502533	     -263.9412879944	      723.3426570892	     1136.4898681641	      294.8038578033	      886.4412307739	      993.8073158264	      111.3374829292	      766.6057348251	      914.8215651512	      116.0868406296	      769.4320678711	      964.5027518272	     -144.9980139732	      589.9039506912	      985.2940440178	        5.3182840347	      588.2760286331	      991.4005994797	      -39.4943356514	      597.5135564804	      979.9215197563	       46.7153191566	      776.9180536270	      692.8613185883	     -185.4649782181	      822.4666118622	      590.7277464867	     -159.2252552509	      870.8970546722	      716.1776423454	     -114.5732402802	      891.8876647949	      623.1741309166	      -92.8377509117	      858.7862253189	      507.4731111526	     -128.9902925491	      915.2224063873	      509.5063447952	      -77.5632858276	      855.8201789856	      339.0040993690	      -67.0173168182	      820.1467990875	      236.5476191044	      -63.0851387978	      790.2050018311	      297.8267073631	     -129.0371417999	      727.9173135757	      111.4463359118	      -81.8386673927	      656.2678813934	       72.5916475058	      -32.4639081955	      831.2109708786	       85.6488719583	      -32.4876904488	      808.2245588303	       44.0581701696	     -124.0850687027	      871.1725473404	       36.7012433708	     -126.0087490082	      871.8031644821	       42.5849854946	      -17.8480148315	      912.4517440796	       47.3769828677	      -48.6885309219	      676.6622066498	      645.3889012337	      151.2699127197	      670.1576709747	      548.2951402664	      137.4727487564	      777.7502536774	      634.8753571510	       80.0847411156	      768.6587572098	      539.4820570946	       74.3544101715	      654.0802717209	      446.2192654610	      117.8654432297	      706.3344717026	      382.0587396622	       77.4601101875	      531.8733453751	      369.4080710411	       76.3882398605	      421.2688207626	      372.2016513348	       63.9652013779	      478.2888889313	      438.4063184261	      117.8628206253	      272.4208831787	      427.6039898396	       71.0620284081	      247.7902173996	      476.1279225349	       10.4541182518	      236.9502782822	      297.6532280445	       30.1055908203	      179.1423559189	      333.6411714554	       97.2262620926	      168.3652400970	      280.8629870415	      104.6949028969	      187.9940032959	      255.5248737335	        4.6058297157	      190.7840967178	      212.4401479959	       43.6984896660
37	        0.1800000072	      815.6938552856	     1432.2321414948	      144.4725990295	      740.0871515274	     1432.7939748764	     -190.0262534618	      694.7582960129	     1461.7736339569	       -6.6013932228	      592.5673246384	     1144.9575424194	     -285.8795821667	      829.6884298325	     1038.1035804749	     -261.2716853619	      735.7703447342	     1133.1493854523	      295.4767346382	      899.3186950684	      985.1185679436	      117.4954175949	      782.5788259506	      910.7971787453	      114.9418354034	      784.3782901764	      962.7993702888	     -147.7504372597	      606.1255931854	      983.3241105080	        6.2217116356	      604.0116548538	      989.1145229340	      -38.2760763168	      613.5904788971	      977.6087999344	       47.4951863289	      791.8766736984	      690.2334094048	     -185.9955489635	      837.5405073166	      587.8210067749	     -160.1492166519	      884.2823505402	      714.1112685204	     -114.7487163544	      904.9431085587	      623.0635643005	      -91.4554595947	      872.0430135727	      503.8347840309	     -128.7316083908	      927.4135828018	      507.0952177048	      -76.1690735817	      864.4585609436	      334.6428871155	      -68.2320594788	      825.0664472580	      233.8145971298	      -62.3970627785	      796.4180707932	      295.3471541405	     -128.7010312080	      729.3740510941	      111.1001968384	      -81.2425613403	      656.6126346588	       72.7590620518	      -31.9249033928	      831.4346075058	       84.9088430405	      -31.8665504456	      808.2699775696	       44.0643616021	     -123.9153742790	      871.5131282806	       36.4812128246	     -125.7230043411	      872.0946311951	       41.5624715388	      -17.9767012596	      912.6876592636	       46.8554012477	      -48.6849546432	      698.1977224350	      642.9080963135	      151.9486904144	      694.9638128281	      545.8213686943	      138.5197043419	      799.3146181107	      635.2427005768	       79.9265503883	      793.5686111450	      539.3003225327	       74.3839144707	      682.0442676544	      443.4327185154	      118.7816262245	      734.8958253860	      380.3363740444	       77.5612592697	      560.5059862137	      366.9708371162	       77.4200558662	      449.3527412415	      370.5268204212	       65.6753182411	      507.0894956589	      435.8945786953	      119.3433403969	      300.9389638901	      425.9817302227	       72.7999210358	      274.7898101807	      474.6795296669	       12.8557682037	      266.8657302856	      296.2142527103	       31.3860774040	      209.0731859207	      330.8137059212	       99.6155738831	      199.0820169449	      277.9738008976	      106.8318486214	      217.6566123962	      253.5824775696	        6.6687464714	      221.7708826065	      210.3566229343	       45.2044010162
